<mxfile host="65bd71144e">
    <diagram id="EnO5uetXyjOkMzf91u9A" name="Page-1">
        <mxGraphModel dx="1006" dy="728" grid="1" gridSize="10" guides="1" tooltips="1" connect="1" arrows="1" fold="1" page="1" pageScale="1" pageWidth="827" pageHeight="1169" math="0" shadow="0">
            <root>
                <mxCell id="0"/>
                <mxCell id="1" parent="0"/>
                <mxCell id="2" value="" style="edgeStyle=orthogonalEdgeStyle;html=1;" edge="1" parent="1" source="3" target="12">
                    <mxGeometry relative="1" as="geometry"/>
                </mxCell>
                <mxCell id="3" value="Input" style="rounded=1;whiteSpace=wrap;html=1;" vertex="1" parent="1">
                    <mxGeometry x="520" y="260" width="120" height="60" as="geometry"/>
                </mxCell>
                <mxCell id="4" style="edgeStyle=none;html=1;" edge="1" parent="1" source="7" target="10">
                    <mxGeometry relative="1" as="geometry"/>
                </mxCell>
                <mxCell id="5" style="edgeStyle=orthogonalEdgeStyle;html=1;entryX=0.5;entryY=0;entryDx=0;entryDy=0;rounded=0;" edge="1" parent="1" source="7" target="3">
                    <mxGeometry relative="1" as="geometry">
                        <Array as="points">
                            <mxPoint x="830" y="230"/>
                            <mxPoint x="580" y="230"/>
                        </Array>
                    </mxGeometry>
                </mxCell>
                <mxCell id="6" style="edgeStyle=orthogonalEdgeStyle;html=1;rounded=0;" edge="1" parent="1" source="7" target="9">
                    <mxGeometry relative="1" as="geometry">
                        <Array as="points">
                            <mxPoint x="830" y="230"/>
                            <mxPoint x="1080" y="230"/>
                        </Array>
                    </mxGeometry>
                </mxCell>
                <mxCell id="7" value="Area and Perimeter" style="rounded=1;whiteSpace=wrap;html=1;" vertex="1" parent="1">
                    <mxGeometry x="770" y="140" width="120" height="60" as="geometry"/>
                </mxCell>
                <mxCell id="8" value="" style="edgeStyle=orthogonalEdgeStyle;html=1;" edge="1" parent="1" source="9" target="11">
                    <mxGeometry relative="1" as="geometry"/>
                </mxCell>
                <mxCell id="9" value="Output" style="rounded=1;whiteSpace=wrap;html=1;" vertex="1" parent="1">
                    <mxGeometry x="1020" y="260" width="120" height="60" as="geometry"/>
                </mxCell>
                <mxCell id="10" value="Process" style="rounded=1;whiteSpace=wrap;html=1;" vertex="1" parent="1">
                    <mxGeometry x="770" y="260" width="120" height="60" as="geometry"/>
                </mxCell>
                <mxCell id="11" value="" style="rounded=1;whiteSpace=wrap;html=1;" vertex="1" parent="1">
                    <mxGeometry x="1020" y="400" width="120" height="60" as="geometry"/>
                </mxCell>
                <mxCell id="12" value="" style="rounded=1;whiteSpace=wrap;html=1;" vertex="1" parent="1">
                    <mxGeometry x="520" y="400" width="120" height="60" as="geometry"/>
                </mxCell>
                <mxCell id="13" value="Get visual status" style="rounded=0;whiteSpace=wrap;html=1;" vertex="1" parent="1">
                    <mxGeometry x="520" y="400" width="120" height="60" as="geometry"/>
                </mxCell>
                <mxCell id="14" value="Show whether or not&lt;br&gt;user is fit to date&lt;br&gt;grandma's grandchild" style="rounded=0;whiteSpace=wrap;html=1;" vertex="1" parent="1">
                    <mxGeometry x="1020" y="400" width="120" height="60" as="geometry"/>
                </mxCell>
                <mxCell id="26" style="edgeStyle=none;html=1;entryX=0.5;entryY=0;entryDx=0;entryDy=0;rounded=0;" edge="1" parent="1" source="15" target="25">
                    <mxGeometry relative="1" as="geometry">
                        <Array as="points">
                            <mxPoint x="430" y="290"/>
                        </Array>
                    </mxGeometry>
                </mxCell>
                <mxCell id="15" value="Input" style="rounded=0;whiteSpace=wrap;html=1;" vertex="1" parent="1">
                    <mxGeometry x="520" y="260" width="120" height="60" as="geometry"/>
                </mxCell>
                <mxCell id="16" style="edgeStyle=orthogonalEdgeStyle;rounded=0;html=1;entryX=0.5;entryY=0;entryDx=0;entryDy=0;" edge="1" parent="1" source="19" target="22">
                    <mxGeometry relative="1" as="geometry"/>
                </mxCell>
                <mxCell id="17" style="edgeStyle=orthogonalEdgeStyle;html=1;entryX=0.5;entryY=0;entryDx=0;entryDy=0;rounded=0;" edge="1" parent="1" source="19" target="23">
                    <mxGeometry relative="1" as="geometry"/>
                </mxCell>
                <mxCell id="19" value="Process" style="rounded=0;whiteSpace=wrap;html=1;" vertex="1" parent="1">
                    <mxGeometry x="770" y="260" width="120" height="60" as="geometry"/>
                </mxCell>
                <mxCell id="20" value="Output" style="rounded=0;whiteSpace=wrap;html=1;" vertex="1" parent="1">
                    <mxGeometry x="1020" y="260" width="120" height="60" as="geometry"/>
                </mxCell>
                <mxCell id="21" value="Can you date her&lt;br&gt;grandchild" style="rounded=0;whiteSpace=wrap;html=1;" vertex="1" parent="1">
                    <mxGeometry x="770" y="140" width="120" height="60" as="geometry"/>
                </mxCell>
                <mxCell id="22" value="Check if rich" style="rounded=0;whiteSpace=wrap;html=1;" vertex="1" parent="1">
                    <mxGeometry x="690" y="400" width="120" height="60" as="geometry"/>
                </mxCell>
                <mxCell id="23" value="Check if attractive" style="rounded=0;whiteSpace=wrap;html=1;" vertex="1" parent="1">
                    <mxGeometry x="840" y="400" width="120" height="60" as="geometry"/>
                </mxCell>
                <mxCell id="25" value="Get financial status" style="rounded=0;whiteSpace=wrap;html=1;" vertex="1" parent="1">
                    <mxGeometry x="370" y="400" width="120" height="60" as="geometry"/>
                </mxCell>
            </root>
        </mxGraphModel>
    </diagram>
    <diagram id="VrfbndeTEBNkU2gRoGER" name="Page-2">
        <mxGraphModel dx="1006" dy="728" grid="1" gridSize="10" guides="1" tooltips="1" connect="1" arrows="1" fold="1" page="1" pageScale="1" pageWidth="827" pageHeight="1169" math="0" shadow="0">
            <root>
                <mxCell id="tKHTBx-7WeMGgCHA9d6U-0"/>
                <mxCell id="tKHTBx-7WeMGgCHA9d6U-1" parent="tKHTBx-7WeMGgCHA9d6U-0"/>
                <mxCell id="tKHTBx-7WeMGgCHA9d6U-2" style="edgeStyle=none;html=1;entryX=0.5;entryY=0;entryDx=0;entryDy=0;" edge="1" parent="tKHTBx-7WeMGgCHA9d6U-1" target="tKHTBx-7WeMGgCHA9d6U-4">
                    <mxGeometry relative="1" as="geometry">
                        <mxPoint x="250" y="200" as="sourcePoint"/>
                    </mxGeometry>
                </mxCell>
                <mxCell id="tKHTBx-7WeMGgCHA9d6U-3" style="edgeStyle=none;html=1;entryX=0.5;entryY=0;entryDx=0;entryDy=0;" edge="1" parent="tKHTBx-7WeMGgCHA9d6U-1" source="tKHTBx-7WeMGgCHA9d6U-4" target="tKHTBx-7WeMGgCHA9d6U-7">
                    <mxGeometry relative="1" as="geometry"/>
                </mxCell>
                <mxCell id="tKHTBx-7WeMGgCHA9d6U-4" value="Get &lt;br&gt;visual status" style="shape=parallelogram;perimeter=parallelogramPerimeter;whiteSpace=wrap;html=1;fixedSize=1;" vertex="1" parent="tKHTBx-7WeMGgCHA9d6U-1">
                    <mxGeometry x="190" y="250" width="120" height="60" as="geometry"/>
                </mxCell>
                <mxCell id="tKHTBx-7WeMGgCHA9d6U-5" style="edgeStyle=none;html=1;entryX=0.5;entryY=0;entryDx=0;entryDy=0;" edge="1" parent="tKHTBx-7WeMGgCHA9d6U-1" source="tKHTBx-7WeMGgCHA9d6U-7">
                    <mxGeometry relative="1" as="geometry">
                        <mxPoint x="250" y="570" as="targetPoint"/>
                    </mxGeometry>
                </mxCell>
                <mxCell id="tKHTBx-7WeMGgCHA9d6U-6" style="edgeStyle=none;html=1;entryX=0;entryY=0.5;entryDx=0;entryDy=0;" edge="1" parent="tKHTBx-7WeMGgCHA9d6U-1" source="tKHTBx-7WeMGgCHA9d6U-7" target="tKHTBx-7WeMGgCHA9d6U-9">
                    <mxGeometry relative="1" as="geometry"/>
                </mxCell>
                <mxCell id="tKHTBx-7WeMGgCHA9d6U-7" value="If rich" style="rhombus;whiteSpace=wrap;html=1;" vertex="1" parent="tKHTBx-7WeMGgCHA9d6U-1">
                    <mxGeometry x="185" y="360" width="130" height="130" as="geometry"/>
                </mxCell>
                <mxCell id="tKHTBx-7WeMGgCHA9d6U-8" style="edgeStyle=none;html=1;entryX=0.5;entryY=0;entryDx=0;entryDy=0;rounded=0;" edge="1" parent="tKHTBx-7WeMGgCHA9d6U-1" source="tKHTBx-7WeMGgCHA9d6U-9" target="tKHTBx-7WeMGgCHA9d6U-29">
                    <mxGeometry relative="1" as="geometry">
                        <mxPoint x="580" y="500" as="targetPoint"/>
                        <Array as="points">
                            <mxPoint x="580" y="425"/>
                        </Array>
                    </mxGeometry>
                </mxCell>
                <mxCell id="tKHTBx-7WeMGgCHA9d6U-9" value="Print &quot;You can date!&quot;" style="shape=parallelogram;perimeter=parallelogramPerimeter;whiteSpace=wrap;html=1;fixedSize=1;" vertex="1" parent="tKHTBx-7WeMGgCHA9d6U-1">
                    <mxGeometry x="380" y="395" width="140" height="60" as="geometry"/>
                </mxCell>
                <mxCell id="tKHTBx-7WeMGgCHA9d6U-10" value="Yes" style="text;html=1;align=center;verticalAlign=middle;resizable=0;points=[];autosize=1;strokeColor=none;fillColor=none;" vertex="1" parent="tKHTBx-7WeMGgCHA9d6U-1">
                    <mxGeometry x="335" y="400" width="30" height="20" as="geometry"/>
                </mxCell>
                <mxCell id="tKHTBx-7WeMGgCHA9d6U-11" value="No" style="text;html=1;align=center;verticalAlign=middle;resizable=0;points=[];autosize=1;strokeColor=none;fillColor=none;" vertex="1" parent="tKHTBx-7WeMGgCHA9d6U-1">
                    <mxGeometry x="250" y="510" width="30" height="20" as="geometry"/>
                </mxCell>
                <mxCell id="tKHTBx-7WeMGgCHA9d6U-13" style="edgeStyle=none;html=1;" edge="1" parent="tKHTBx-7WeMGgCHA9d6U-1" source="tKHTBx-7WeMGgCHA9d6U-15" target="tKHTBx-7WeMGgCHA9d6U-28">
                    <mxGeometry relative="1" as="geometry">
                        <mxPoint x="250" y="780" as="targetPoint"/>
                    </mxGeometry>
                </mxCell>
                <mxCell id="tKHTBx-7WeMGgCHA9d6U-14" style="edgeStyle=none;html=1;entryX=0;entryY=0.5;entryDx=0;entryDy=0;" edge="1" parent="tKHTBx-7WeMGgCHA9d6U-1" source="tKHTBx-7WeMGgCHA9d6U-15" target="tKHTBx-7WeMGgCHA9d6U-17">
                    <mxGeometry relative="1" as="geometry"/>
                </mxCell>
                <mxCell id="tKHTBx-7WeMGgCHA9d6U-15" value="If attractive" style="rhombus;whiteSpace=wrap;html=1;" vertex="1" parent="tKHTBx-7WeMGgCHA9d6U-1">
                    <mxGeometry x="185" y="570" width="130" height="130" as="geometry"/>
                </mxCell>
                <mxCell id="tKHTBx-7WeMGgCHA9d6U-16" style="edgeStyle=none;rounded=0;html=1;" edge="1" parent="tKHTBx-7WeMGgCHA9d6U-1" source="tKHTBx-7WeMGgCHA9d6U-17">
                    <mxGeometry relative="1" as="geometry">
                        <mxPoint x="580" y="635" as="targetPoint"/>
                    </mxGeometry>
                </mxCell>
                <mxCell id="tKHTBx-7WeMGgCHA9d6U-17" value="Print &quot;You can date!&quot;" style="shape=parallelogram;perimeter=parallelogramPerimeter;whiteSpace=wrap;html=1;fixedSize=1;" vertex="1" parent="tKHTBx-7WeMGgCHA9d6U-1">
                    <mxGeometry x="380" y="605" width="140" height="60" as="geometry"/>
                </mxCell>
                <mxCell id="tKHTBx-7WeMGgCHA9d6U-18" value="Yes" style="text;html=1;align=center;verticalAlign=middle;resizable=0;points=[];autosize=1;strokeColor=none;fillColor=none;" vertex="1" parent="tKHTBx-7WeMGgCHA9d6U-1">
                    <mxGeometry x="335" y="610" width="30" height="20" as="geometry"/>
                </mxCell>
                <mxCell id="tKHTBx-7WeMGgCHA9d6U-19" value="No" style="text;html=1;align=center;verticalAlign=middle;resizable=0;points=[];autosize=1;strokeColor=none;fillColor=none;" vertex="1" parent="tKHTBx-7WeMGgCHA9d6U-1">
                    <mxGeometry x="250" y="720" width="30" height="20" as="geometry"/>
                </mxCell>
                <mxCell id="tKHTBx-7WeMGgCHA9d6U-27" style="edgeStyle=none;html=1;entryX=0;entryY=0.5;entryDx=0;entryDy=0;" edge="1" parent="tKHTBx-7WeMGgCHA9d6U-1" source="tKHTBx-7WeMGgCHA9d6U-28" target="tKHTBx-7WeMGgCHA9d6U-29">
                    <mxGeometry relative="1" as="geometry">
                        <mxPoint x="560" y="890" as="targetPoint"/>
                    </mxGeometry>
                </mxCell>
                <mxCell id="tKHTBx-7WeMGgCHA9d6U-28" value="Print &quot;Ew, get out!&quot;" style="shape=parallelogram;perimeter=parallelogramPerimeter;whiteSpace=wrap;html=1;fixedSize=1;" vertex="1" parent="tKHTBx-7WeMGgCHA9d6U-1">
                    <mxGeometry x="180" y="800" width="140" height="60" as="geometry"/>
                </mxCell>
                <mxCell id="tKHTBx-7WeMGgCHA9d6U-29" value="Stop" style="ellipse;whiteSpace=wrap;html=1;" vertex="1" parent="tKHTBx-7WeMGgCHA9d6U-1">
                    <mxGeometry x="520" y="790" width="120" height="80" as="geometry"/>
                </mxCell>
                <mxCell id="tKHTBx-7WeMGgCHA9d6U-30" value="Start" style="ellipse;whiteSpace=wrap;html=1;" vertex="1" parent="tKHTBx-7WeMGgCHA9d6U-1">
                    <mxGeometry x="190" y="10" width="120" height="80" as="geometry"/>
                </mxCell>
                <mxCell id="tKHTBx-7WeMGgCHA9d6U-31" style="edgeStyle=none;html=1;entryX=0.5;entryY=0;entryDx=0;entryDy=0;" edge="1" parent="tKHTBx-7WeMGgCHA9d6U-1" target="tKHTBx-7WeMGgCHA9d6U-32">
                    <mxGeometry relative="1" as="geometry">
                        <mxPoint x="250" y="90" as="sourcePoint"/>
                    </mxGeometry>
                </mxCell>
                <mxCell id="tKHTBx-7WeMGgCHA9d6U-32" value="Get &lt;br&gt;financial status" style="shape=parallelogram;perimeter=parallelogramPerimeter;whiteSpace=wrap;html=1;fixedSize=1;" vertex="1" parent="tKHTBx-7WeMGgCHA9d6U-1">
                    <mxGeometry x="190" y="140" width="120" height="60" as="geometry"/>
                </mxCell>
            </root>
        </mxGraphModel>
    </diagram>
</mxfile>